<?xml version="1.0" encoding="UTF-8"?>
<svg width="24px" height="24px" viewBox="0 0 24 24" version="1.1" xmlns="http://www.w3.org/2000/svg" xmlns:xlink="http://www.w3.org/1999/xlink">
    <title>Binary</title>
    <g id="Binary" stroke="none" stroke-width="1" fill="none" fill-rule="evenodd">
        <rect id="Rectangle" fill="#6CD3A9" x="0" y="0" width="24" height="24" rx="8"></rect>
        <g id="file-binary" transform="translate(6.000000, 5.000000)" fill="#FFFFFF" fill-rule="nonzero">
            <path d="M8.57,0.14 L11.85,3.44 L12,3.8 L12,13.5 L11.5,14 L0.5,14 L0,13.5 L0,0.5 L0.5,0 L8.22,0 L8.57,0.14 L8.57,0.14 Z M1,1 L1,13 L11,13 L11,4 L8,1 L1,1 Z M2.46,5.052 C2.46,6.339 2.918,6.982 3.834,6.982 C4.291,6.982 4.641,6.809 4.884,6.462 C5.13,6.114 5.252,5.615 5.252,4.963 C5.252,3.654 4.805,3 3.91,3 C3.439,3 3.079,3.175 2.83,3.526 C2.583,3.876 2.46,4.384 2.46,5.052 Z M3.322,5.03 C3.322,4.108 3.505,3.647 3.872,3.647 C4.216,3.647 4.388,4.095 4.388,4.99 C4.388,5.885 4.212,6.333 3.861,6.333 C3.501,6.333 3.321,5.899 3.321,5.03 L3.322,5.03 Z M6.509,6.916 L8.944,6.916 L8.944,6.244 L8.152,6.244 L8.152,3 L6.487,3.336 L6.487,4.023 L7.307,3.846 L7.307,6.244 L6.509,6.244 L6.509,6.916 L6.509,6.916 Z M5.172,11.916 L2.736,11.916 L2.736,11.244 L3.534,11.244 L3.534,8.846 L2.714,9.023 L2.714,8.336 L4.38,8 L4.38,11.244 L5.172,11.244 L5.172,11.915 L5.172,11.916 Z M6.207,9.985 C6.207,11.272 6.665,11.915 7.582,11.915 C8.039,11.915 8.389,11.742 8.632,11.395 C8.877,11.047 9,10.548 9,9.896 C9,8.587 8.552,7.933 7.657,7.933 C7.187,7.933 6.827,8.108 6.577,8.459 C6.331,8.809 6.207,9.317 6.207,9.985 L6.207,9.985 Z M7.069,9.963 C7.069,9.041 7.253,8.58 7.619,8.58 C7.963,8.58 8.135,9.028 8.135,9.923 C8.135,10.818 7.96,11.266 7.609,11.266 C7.249,11.266 7.069,10.832 7.069,9.963 L7.069,9.963 Z" id="Shape"></path>
        </g>
    </g>
</svg>