<?xml version="1.0" encoding="UTF-8"?>
<svg width="24px" height="24px" viewBox="0 0 24 24" version="1.1" xmlns="http://www.w3.org/2000/svg" xmlns:xlink="http://www.w3.org/1999/xlink">
    <title>icon/error</title>
    <g id="icon/error" stroke="none" stroke-width="1" fill="none" fill-rule="evenodd">
        <rect id="Rectangle" fill="#FD5B5B" x="0" y="0" width="24" height="24" rx="8"></rect>
        <g id="alert" transform="translate(4.000000, 4.000000)" fill="#FFFFFF" fill-rule="nonzero">
            <path d="M8,0 C12.418278,0 16,3.581722 16,8 C16,12.418278 12.418278,16 8,16 C3.581722,16 0,12.418278 0,8 C0,3.581722 3.581722,0 8,0 Z M8,1.6 C4.4653776,1.6 1.6,4.4653776 1.6,8 C1.6,11.5346224 4.4653776,14.4 8,14.4 C11.5346224,14.4 14.4,11.5346224 14.4,8 C14.4,4.4653776 11.5346224,1.6 8,1.6 Z M8,11.2 C8.44182776,11.2 8.8,11.5581722 8.8,12 C8.8,12.4418278 8.44182776,12.8 8,12.8 C7.55817224,12.8 7.2,12.4418278 7.2,12 C7.2,11.5581722 7.55817224,11.2 8,11.2 Z M8,3.2 C8.44182776,3.2 8.8,3.5581722 8.8,4 L8.8,8.8 C8.8,9.24182776 8.44182776,9.6 8,9.6 C7.55817224,9.6 7.2,9.24182776 7.2,8.8 L7.2,4 C7.2,3.5581722 7.55817224,3.2 8,3.2 Z" id="Shape"></path>
        </g>
    </g>
</svg>