<?xml version="1.0" encoding="UTF-8"?>
<svg width="24px" height="24px" viewBox="0 0 24 24" version="1.1" xmlns="http://www.w3.org/2000/svg" xmlns:xlink="http://www.w3.org/1999/xlink">
    <title>keypair</title>
    <g id="keypair" stroke="none" stroke-width="1" fill="none" fill-rule="evenodd">
        <rect id="Rectangle" fill="#8F5FD5" x="0" y="0" width="24" height="24" rx="8"></rect>
        <g id="key" transform="translate(4.000000, 8.000000)" fill="#FFFFFF" fill-rule="nonzero">
            <path d="M3.06166839e-07,4 C-0.000704470574,2.18982246 1.2154218,0.60501816 2.96467459,0.136562309 C4.71392739,-0.331893543 6.55981571,0.432892828 7.4645832,2.00095938 L13.9992178,2.00095938 C14.1319092,2.0007225 14.2592525,2.05322035 14.353198,2.14688935 L15.8531141,3.64616981 C15.9471506,3.73992908 16.0000003,3.86723646 16.0000003,4 C16.0000003,4.13276354 15.9471506,4.26007092 15.8531141,4.35383019 L14.353198,5.85311065 C14.259399,5.94710724 14.1320376,5.99993397 13.9992178,5.99993397 C13.866398,5.99993397 13.7390366,5.94710724 13.6452376,5.85311065 L12.9992737,5.20642101 L12.3533098,5.85311065 C12.2595108,5.94710724 12.1321495,5.99993397 11.9993296,5.99993397 C11.8665098,5.99993397 11.7391484,5.94710724 11.6453494,5.85311065 L10.9993855,5.20642101 L10.3534217,5.85311065 C10.2596226,5.94710724 10.1322613,5.99993397 9.99944145,5.99993397 C9.86662162,5.99993397 9.73926027,5.94710724 9.64546125,5.85311065 L8.99949737,5.20642101 L8.35353349,5.85311065 C8.25958801,5.94677965 8.13224473,5.9992775 7.99955329,5.99904062 L7.4645832,5.99904062 C6.55981571,7.56710717 4.71392739,8.33189354 2.96467459,7.86343769 C1.2154218,7.39498184 -0.000704470574,5.81017754 3.06166839e-07,4 L3.06166839e-07,4 Z M3.99977695,1.00143885 C2.51348905,1.00200248 1.25170012,2.09034733 1.03356605,3.55991799 C0.815431981,5.02948864 1.70672851,6.43715349 3.12882416,6.86905371 C4.55091981,7.30095393 6.0749985,6.62685513 6.71162531,5.2843836 C6.79447782,5.11049983 6.96991972,4.99967998 7.16260009,4.99952031 L7.79256486,4.99952031 L8.64551716,4.14592997 C8.73931618,4.05193338 8.86667754,3.99910665 8.99949737,3.99910665 C9.1323172,3.99910665 9.25967856,4.05193338 9.35347758,4.14592997 L9.99944145,4.79261961 L10.6454053,4.14592997 C10.7392044,4.05193338 10.8665657,3.99910665 10.9993855,3.99910665 C11.1322054,3.99910665 11.2595667,4.05193338 11.3533657,4.14592997 L11.9993296,4.79261961 L12.6452935,4.14592997 C12.7390925,4.05193338 12.8664539,3.99910665 12.9992737,3.99910665 C13.1320935,3.99910665 13.2594549,4.05193338 13.3532539,4.14592997 L13.9992178,4.79261961 L14.7921735,4 L13.7922294,3.00047969 L7.16260009,3.00047969 C6.96991972,3.00032002 6.79447782,2.88950017 6.71162531,2.7156164 C6.21501943,1.66841022 5.15916821,1.00099966 3.99977695,1.00143885 Z" id="Shape"></path>
            <path d="M6,4 C6,5.1045695 5.1045695,6 4,6 C2.8954305,6 2,5.1045695 2,4 C2,2.8954305 2.8954305,2 4,2 C5.1045695,2 6,2.8954305 6,4 Z" id="Path"></path>
        </g>
    </g>
</svg>