<?xml version="1.0" encoding="UTF-8"?>
<svg width="24px" height="24px" viewBox="0 0 24 24" version="1.1" xmlns="http://www.w3.org/2000/svg" xmlns:xlink="http://www.w3.org/1999/xlink">
    <title>list</title>
    <g id="list" stroke="none" stroke-width="1" fill="none" fill-rule="evenodd">
        <rect id="Rectangle" fill="#FD5B5B" x="0" y="0" width="24" height="24" rx="8"></rect>
        <g id="unordered-list" transform="translate(5.000000, 7.000000)" fill="#FFFFFF" fill-rule="nonzero">
            <path d="M4,0 L13,0 C13.5522847,0 14,0.44771525 14,1 C14,1.55228475 13.5522847,2 13,2 L4,2 C3.44771525,2 3,1.55228475 3,1 C3,0.44771525 3.44771525,0 4,0 Z M4,8 L13,8 C13.5522847,8 14,8.44771525 14,9 C14,9.55228475 13.5522847,10 13,10 L4,10 C3.44771525,10 3,9.55228475 3,9 C3,8.44771525 3.44771525,8 4,8 Z M4,4 L13,4 C13.5522847,4 14,4.44771525 14,5 C14,5.55228475 13.5522847,6 13,6 L4,6 C3.44771525,6 3,5.55228475 3,5 C3,4.44771525 3.44771525,4 4,4 Z M1,0 C1.55228475,0 2,0.44771525 2,1 C2,1.55228475 1.55228475,2 1,2 C0.44771525,2 0,1.55228475 0,1 C0,0.44771525 0.44771525,0 1,0 Z M1,8 C1.55228475,8 2,8.44771525 2,9 C2,9.55228475 1.55228475,10 1,10 C0.44771525,10 0,9.55228475 0,9 C0,8.44771525 0.44771525,8 1,8 Z M1,4 C1.55228475,4 2,4.44771525 2,5 C2,5.55228475 1.55228475,6 1,6 C0.44771525,6 0,5.55228475 0,5 C0,4.44771525 0.44771525,4 1,4 Z" id="Shape"></path>
        </g>
    </g>
</svg>