<?xml version="1.0" encoding="UTF-8"?>
<svg width="24px" height="24px" viewBox="0 0 24 24" version="1.1" xmlns="http://www.w3.org/2000/svg" xmlns:xlink="http://www.w3.org/1999/xlink">
    <title>program</title>
    <g id="program" stroke="none" stroke-width="1" fill="none" fill-rule="evenodd">
        <rect id="Rectangle" fill="#4B99A6" x="0" y="0" width="24" height="24" rx="8"></rect>
        <g id="brackets-curly" transform="translate(5.000000, 6.000000)" fill="#FFFFFF" fill-rule="nonzero">
            <path d="M3.18181818,2.6 C3.18181818,1.88202983 3.75163759,1.3 4.45454545,1.3 C4.80599939,1.3 5.09090909,1.00898509 5.09090909,0.65 C5.09090909,0.291014913 4.80599939,0 4.45454545,0 C3.04872973,0 1.90909091,1.16405965 1.90909091,2.6 L1.90909091,4.55 C1.90909091,5.26797017 1.3392715,5.85 0.636363636,5.85 C0.284909705,5.85 0,6.14101491 0,6.5 C0,6.85898509 0.284909705,7.15 0.636363636,7.15 C0.973911896,7.15 1.29763506,7.28696389 1.53631772,7.53076118 C1.77500038,7.77455848 1.90909091,8.10521856 1.90909091,8.45 L1.90909091,10.4 C1.90909091,11.8359403 3.04872973,13 4.45454545,13 C4.80599939,13 5.09090909,12.7089851 5.09090909,12.35 C5.09090909,11.9910149 4.80599939,11.7 4.45454545,11.7 C3.75163759,11.7 3.18181818,11.1179702 3.18181818,10.4 L3.18181818,8.45 C3.17768126,7.70115301 2.85763472,6.99049067 2.30363636,6.5 C2.85763472,6.00950933 3.17768126,5.29884699 3.18181818,4.55 L3.18181818,2.6 Z M13.3636364,5.85 C12.6607285,5.85 12.0909091,5.26797017 12.0909091,4.55 L12.0909091,2.6 C12.0909091,1.16405965 10.9512703,0 9.54545455,0 C9.19400061,0 8.90909091,0.291014913 8.90909091,0.65 C8.90909091,1.00898509 9.19400061,1.3 9.54545455,1.3 C10.2483624,1.3 10.8181818,1.88202983 10.8181818,2.6 L10.8181818,4.55 C10.8223187,5.29884699 11.1423653,6.00950933 11.6963636,6.5 C11.1423653,6.99049067 10.8223187,7.70115301 10.8181818,8.45 L10.8181818,10.4 C10.8181818,11.1179702 10.2483624,11.7 9.54545455,11.7 C9.19400061,11.7 8.90909091,11.9910149 8.90909091,12.35 C8.90909091,12.7089851 9.19400061,13 9.54545455,13 C10.9512703,13 12.0909091,11.8359403 12.0909091,10.4 L12.0909091,8.45 C12.0909091,7.73202983 12.6607285,7.15 13.3636364,7.15 C13.7150903,7.15 14,6.85898509 14,6.5 C14,6.14101491 13.7150903,5.85 13.3636364,5.85 L13.3636364,5.85 Z" id="Shape"></path>
        </g>
    </g>
</svg>