<?xml version="1.0" encoding="UTF-8"?>
<svg width="24px" height="24px" viewBox="0 0 24 24" version="1.1" xmlns="http://www.w3.org/2000/svg" xmlns:xlink="http://www.w3.org/1999/xlink">
    <title>icon/sign</title>
    <g id="icon/sign" stroke="none" stroke-width="1" fill="none" fill-rule="evenodd">
        <rect id="Rectangle" fill="#DC56D2" x="0" y="0" width="24" height="24" rx="8"></rect>
        <g id="signature-solid" transform="translate(5.000000, 5.000000)" fill="#FFFFFF" fill-rule="nonzero">
            <path d="M3.09895833,0 C2.65917983,0 2.27864583,0.214193 1.93229167,0.510416667 C1.5859375,0.806640917 1.26692708,1.2054035 0.984375,1.71354167 C0.419270833,2.7320965 0,4.16080758 0,5.94270833 C0,6.85644517 0.211913917,7.79752633 0.638020833,8.54947917 C0.731445167,8.71354167 0.884114583,8.82291667 1.00260417,8.96875 C0.68587225,9.35612008 0.1640625,10.0807292 0.1640625,10.0807292 L1.00260417,10.9192708 C1.00260417,10.9192708 1.5813805,10.1217451 1.95052083,9.6796875 C2.1852215,9.77994792 2.40625,9.91666667 2.6796875,9.91666667 C3.68001317,9.91666667 4.72363267,9.47916667 5.6875,8.93229167 C5.99739583,9.16927083 6.3460285,9.33333333 6.70833333,9.33333333 C7.90690133,9.33333333 8.81835967,8.62923192 9.4609375,8.00260417 C9.64778675,7.8203125 9.77311183,7.68587225 9.91666667,7.52864583 C9.91438817,7.68815133 9.90983058,7.83398467 9.953125,8.02083333 C9.98730483,8.16210967 10.0260417,8.33756525 10.171875,8.49479167 C10.3177083,8.65201808 10.5797528,8.75 10.7916667,8.75 C11.2177736,8.75 11.4638673,8.55403675 11.7213542,8.3671875 C11.978841,8.18033883 12.2226562,7.95703125 12.4869792,7.74739583 C13.0179035,7.328125 13.5830077,7 14,7 L14,5.83333333 C13.0748701,5.83333333 12.3525389,6.38020833 11.7760417,6.8359375 C11.5026042,7.052409 11.2565104,7.24153675 11.0651042,7.3828125 C11.0651042,7.35091175 11.0651042,7.34407567 11.0651042,7.30989583 C11.0719403,7.09798192 11.103841,6.86100275 11.0651042,6.59895833 C11.046875,6.46907567 11.0035806,6.33235692 10.8828125,6.16145833 C10.7620444,5.99055975 10.4908854,5.83333333 10.2630208,5.83333333 C9.93489583,5.83333333 9.81412775,5.97460967 9.69791667,6.0703125 C9.58170558,6.16601592 9.49511733,6.26399725 9.38802083,6.38020833 C9.17382842,6.6126305 8.91862008,6.8929035 8.640625,7.1640625 C8.150716,7.64257842 7.57421875,8.00488267 6.9453125,8.09375 C7.36230483,7.75878892 7.78157567,7.42610692 8.07552083,7.0546875 C8.46289092,6.56705758 8.75,6.0703125 8.75,5.48697917 C8.75,5.15885417 8.70898467,4.70996108 8.45833333,4.28385417 C8.20768258,3.85774725 7.66764308,3.5 7,3.5 C6.28222642,3.5 5.6282555,3.85319025 5.23177083,4.41145833 C4.83528675,4.96972642 4.66666667,5.6852215 4.66666667,6.52604167 C4.66666667,7.09798192 4.79654933,7.57194025 4.9765625,7.984375 C4.16536458,8.41048192 3.32454442,8.75 2.6796875,8.75 C3.666341,7.271159 4.66666667,5.25683608 4.66666667,2.80729167 C4.66666667,2.2991535 4.67122425,1.69987008 4.50260417,1.1484375 C4.41829442,0.8727215 4.28385417,0.592447917 4.046875,0.364583333 C3.80989583,0.13671875 3.45898467,0 3.09895833,0 Z M3.09895833,1.16666667 C3.20377633,1.16666667 3.20833333,1.18717433 3.24479167,1.22135417 C3.28125,1.255534 3.32454442,1.33984375 3.37239583,1.49479167 C3.46582017,1.802409 3.5,2.32194025 3.5,2.80729167 C3.5,4.87402358 2.61588542,6.68326808 1.73177083,8.0390625 C1.71126317,8.00488267 1.67936183,8.00260417 1.65885417,7.96614583 C1.35579442,7.4352215 1.16666667,6.66276042 1.16666667,5.94270833 C1.16666667,4.34082017 1.54947917,3.09895833 2.00520833,2.27864583 C2.23307292,1.86848958 2.46777358,1.56770833 2.6796875,1.38541667 C2.89160142,1.203125 3.07161458,1.16666667 3.09895833,1.16666667 Z M7,4.66666667 C7.323568,4.66666667 7.37141942,4.74414092 7.45572917,4.88541667 C7.54003892,5.026693 7.58333333,5.28873683 7.58333333,5.48697917 C7.58333333,5.6328125 7.46028675,5.97233058 7.1640625,6.34375 C6.90657567,6.667318 6.51464858,7.0022785 6.08854167,7.328125 C5.98600275,7.09342433 5.83333333,6.92252633 5.83333333,6.52604167 C5.83333333,5.849284 5.97688817,5.354818 6.1796875,5.06770833 C6.38248683,4.78059925 6.61035142,4.66666667 7,4.66666667 Z M0,12.8333333 L0,14 L14,14 L14,12.8333333 L0,12.8333333 Z" id="Shape"></path>
        </g>
    </g>
</svg>