<?xml version="1.0" encoding="UTF-8"?>
<!--
  -  Solana Playground  Copyright (C) 2022  Tran Giang Long
  -->

<svg width="24px" height="24px" viewBox="0 0 24 24" version="1.1" xmlns="http://www.w3.org/2000/svg" xmlns:xlink="http://www.w3.org/1999/xlink">
    <title>Signature</title>
    <g id="Signature" stroke="none" stroke-width="1" fill="none" fill-rule="evenodd">
        <rect id="Rectangle" fill="#6C79D3" x="0" y="0" width="24" height="24" rx="8"></rect>
        <g id="signature" transform="translate(5.000000, 5.000000)" fill="#FFFFFF" fill-rule="nonzero">
            <path d="M8.02145881,0.715990125 C8.97610881,-0.238664875 10.5238988,-0.238661875 11.4785988,0.715990125 C12.4331988,1.67064013 12.4331988,3.21844013 11.4785988,4.17310013 L11.2070988,4.44457013 L11.2928988,4.53037013 C12.0738988,5.31141013 12.0738988,6.57774013 11.2928988,7.35879013 L9.85359881,8.79813013 C9.65829881,8.99338013 9.34169881,8.99338013 9.14639881,8.79813013 C8.95117881,8.60287013 8.95117881,8.28629013 9.14639881,8.09103013 L10.5857988,6.65169013 C10.9762988,6.26116013 10.9762988,5.62800013 10.5857988,5.23747013 L10.5,5.15167013 L4.85355881,10.7980801 C4.78947881,10.8621801 4.70918881,10.9076801 4.62127881,10.9295801 L0.621278813,11.9295801 C0.444238813,11.9738801 0.257138813,11.9181801 0.133148813,11.7842801 C0.00915881343,11.6503801 -0.0320411866,11.4595801 0.0256688134,11.2864801 L1.27566881,7.53643013 C1.30021881,7.46279013 1.34156881,7.39588013 1.39645881,7.34099013 L8.02145881,0.715990125 Z M10.7714988,1.42310013 C10.2072988,0.858970125 9.29269881,0.858970125 8.72856881,1.42310013 L2.18702881,7.96464013 L1.26237881,10.7385801 L4.24438881,9.99308013 L10.7714988,3.46599013 C11.3355988,2.90186013 11.3355988,1.98723013 10.7714988,1.42310013 Z" id="Shape"></path>
            <path d="M3.96665881,13.9444801 C2.73161881,13.9444801 1.75916881,13.3779801 1.11172881,12.8377801 L2.39641881,12.5165801 C2.84173881,12.7661801 3.36918881,12.9444801 3.96665881,12.9444801 C4.37204881,12.9444801 4.79004881,12.7804801 5.23584881,12.4875801 C5.68259881,12.1939801 6.11406881,11.8005801 6.54969881,11.3921801 L6.66312881,11.2856801 C7.04751881,10.9243801 7.44719881,10.5486801 7.82927881,10.2888801 C8.23732881,10.0113801 8.77809881,9.75938013 9.34619881,9.97788013 C9.72149881,10.1222801 9.96519881,10.3887801 10.1370988,10.7146801 C10.2982988,11.0199801 10.4092988,11.4027801 10.5172988,11.8188801 C10.5666988,12.0090801 10.6503988,12.1928801 10.7462988,12.3171801 C10.7929988,12.3777801 10.8332988,12.4120801 10.8613988,12.4293801 C10.8860988,12.4445801 10.8970988,12.4445801 10.8998988,12.4445801 C11.0217988,12.4445801 11.2309988,12.3620801 11.5298988,12.1586801 C11.7152988,12.0324801 11.8735988,11.9061801 12.0320988,11.7797801 C12.1303988,11.7013801 12.2287988,11.6227801 12.3337988,11.5442801 C12.6126988,11.3354801 12.8543988,11.1954801 13.0313988,11.1059801 C13.1197988,11.0611801 13.1921988,11.0289801 13.2449988,11.0071801 C13.2713988,10.9962801 13.2928988,10.9879801 13.3090988,10.9818801 L13.3293988,10.9745801 L13.3364988,10.9720801 L13.3391988,10.9711801 L13.3403988,10.9707801 C13.3404988,10.9706801 13.3413988,10.9703801 13.4999988,11.4445801 L13.3413988,10.9703801 C13.6032988,10.8827801 13.8865988,11.0240801 13.9741988,11.2859801 C14.0613988,11.5467801 13.9216988,11.8286801 13.6619988,11.9175801 L13.6580988,11.9190801 C13.6526988,11.9210801 13.6421988,11.9250801 13.6269988,11.9313801 C13.5965988,11.9438801 13.5474988,11.9654801 13.4827988,11.9982801 C13.3533988,12.0636801 13.1616988,12.1736801 12.9328988,12.3448801 C12.8742988,12.3886801 12.7976988,12.4494801 12.7102988,12.5187801 C12.5289988,12.6626801 12.3011988,12.8433801 12.0924988,12.9853801 C11.7815988,13.1969801 11.3509988,13.4445801 10.8999988,13.4445801 C10.4643988,13.4445801 10.1487988,13.1798801 9.95449881,12.9279801 C9.75619881,12.6709801 9.62319881,12.3547801 9.54939881,12.0701801 C9.43969881,11.6476801 9.35279881,11.3709801 9.25269881,11.1812801 C9.16339881,11.0120801 9.08269881,10.9479801 8.98714881,10.9111801 C8.90522881,10.8796801 8.74182881,10.8776801 8.39154881,11.1157801 C8.07851881,11.3286801 7.73734881,11.6488801 7.33352881,12.0279801 L7.23362881,12.1217801 C6.80259881,12.5258801 6.31322881,12.9761801 5.78496881,13.3232801 C5.25576881,13.6709801 4.64460881,13.9444801 3.96665881,13.9444801 L3.96665881,13.9444801 Z" id="Path"></path>
        </g>
    </g>
</svg>