<?xml version="1.0" encoding="UTF-8"?>
<svg width="24px" height="24px" viewBox="0 0 24 24" version="1.1" xmlns="http://www.w3.org/2000/svg" xmlns:xlink="http://www.w3.org/1999/xlink">
    <title>Submit Transaction</title>
    <g id="Submit-Transaction" stroke="none" stroke-width="1" fill="none" fill-rule="evenodd">
        <rect id="Rectangle" fill="#8BD36C" x="0" y="0" width="24" height="24" rx="8"></rect>
        <path d="M11.9895958,11.9599137 L7.54180139,4.03941121 C7.52814814,4.0149652 7.50290145,4 7.47560657,4 C7.44831168,4 7.42313359,4.01522051 7.4095916,4.03973263 L3.01034434,11.9602352 C2.99655189,11.9849296 2.99655189,12.0153607 3.01034434,12.0400552 L7.45817326,19.9605577 C7.47182194,19.9850212 7.49707812,20 7.52438539,20 C7.55169267,20 7.57688021,19.9847659 7.59041758,19.9602363 L11.9897684,12.0397337 C12.0034719,12.0149977 12.0034062,11.9845862 11.9895958,11.9599137 L11.9895958,11.9599137 Z M13.6662464,10.9607769 C13.6790613,10.9849535 13.7030351,10.9999271 13.7290452,11 L15.9273029,11 C15.9534446,10.9996672 15.9774575,10.9845417 15.9903814,10.9602674 C16.0033053,10.9359931 16.0031989,10.9062164 15.9901017,10.8820483 L12.3337206,4.0392231 C12.3209209,4.0150304 12.2969375,4 12.2709217,4 L10.0726971,4 C10.0465554,4.00033275 10.0225425,4.01545826 10.0096186,4.03973257 C9.99669468,4.06400689 9.99680114,4.09378357 10.0098983,4.11795174 L13.6662464,10.9607769 Z M20.9895186,11.9602143 L16.5024766,4.03971429 C16.4886484,4.01518666 16.4628492,4 16.4348878,4 L14.0781291,4 C14.0501138,4.00026849 14.0243481,4.01553495 14.0104621,4.04009345 C13.9965761,4.06465196 13.9966598,4.09480613 14.010682,4.11928571 L18.4753596,12 L14.0105758,19.8807143 C13.9965536,19.9051939 13.9964699,19.935348 14.0103559,19.9599065 C14.0242419,19.9844651 14.0500076,19.9997315 14.078023,20 L16.4347817,20 C16.4626924,20 16.4884258,19.9847691 16.5022289,19.9602857 L20.9895186,12.0397857 C21.0034938,12.015137 21.0034938,11.984863 20.9895186,11.9602143 L20.9895186,11.9602143 Z M15.9265319,13 L13.7059956,13 C13.6797158,13 13.655489,13.0152764 13.6425594,13.0398651 L10.0099987,19.8801177 C9.99676867,19.9046814 9.99666113,19.9349455 10.0097162,19.9596171 C10.0227713,19.9842887 10.047028,19.9996618 10.073435,20 L12.2940046,20 C12.3202844,20 12.3445113,19.9847236 12.3574409,19.9601349 L15.9900015,13.1198823 C16.0032343,13.095313 16.0033386,13.0650415 15.9902755,13.0403676 C15.9772123,13.0156937 15.9529449,13.0003256 15.9265319,13 L15.9265319,13 Z" id="Shape" fill="#FFFFFF" fill-rule="nonzero"></path>
    </g>
</svg>