<?xml version="1.0" encoding="UTF-8"?>
<svg width="30px" height="30px" viewBox="0 0 30 30" version="1.1" xmlns="http://www.w3.org/2000/svg" xmlns:xlink="http://www.w3.org/1999/xlink">
    <title>user</title>
    <g id="Page-1" stroke="none" stroke-width="1" fill="none" fill-rule="evenodd">
        <g id="iPad-Pro-11″" transform="translate(-998.000000, -15.000000)" fill="#FFFFFF" fill-rule="nonzero">
            <g id="user" transform="translate(998.000000, 15.000000)">
                <path d="M25.6066131,4.39338686 C22.7735138,1.56028746 19.0065765,0 15,0 C10.9934235,0 7.22648619,1.56028746 4.39338686,4.39338686 C1.56028746,7.22648619 0,10.9934235 0,15 C0,19.0065765 1.56028746,22.7735138 4.39338686,25.6066131 C7.22648619,28.4397125 10.9934235,30 15,30 C19.0065765,30 22.7735138,28.4397125 25.6066131,25.6066131 C28.4397125,22.7735138 30,19.0065765 30,15 C30,10.9934235 28.4397125,7.22648619 25.6066131,4.39338686 Z M6.51008607,25.1541138 C7.00538637,20.892334 10.6695557,17.6019287 15,17.6019287 C17.2828675,17.6019287 19.4295502,18.4913636 21.0443115,20.105896 C22.4084473,21.4702606 23.2688141,23.2516479 23.4901429,25.1538849 C21.1898804,27.0803833 18.2281494,28.2421875 15,28.2421875 C11.7718506,28.2421875 8.8103485,27.0806122 6.51008607,25.1541138 Z M15,15.7914734 C12.4880218,15.7914734 10.4441071,13.7475586 10.4441071,11.2355804 C10.4441071,8.7233734 12.4880218,6.6796875 15,6.6796875 C17.5119782,6.6796875 19.5558929,8.7233734 19.5558929,11.2355804 C19.5558929,13.7475586 17.5119782,15.7914734 15,15.7914734 Z M25.0030518,23.667984 C24.55513,21.8621063 23.6210632,20.1969909 22.2871399,18.8630677 C21.2068177,17.7827454 19.9287415,16.9722748 18.5348511,16.464386 C20.210495,15.3279877 21.3137054,13.4081268 21.3137054,11.2355804 C21.3137054,7.75428773 18.4812927,4.921875 15,4.921875 C11.5187073,4.921875 8.68629457,7.75428773 8.68629457,11.2355804 C8.68629457,13.4092712 9.79042055,15.3298187 11.4674378,16.4659881 C10.1850128,16.9333649 8.99826047,17.6559448 7.97721861,18.6071777 C6.49864195,19.9841309 5.47187807,21.7398834 4.99580385,23.6666107 C2.97958371,21.3423157 1.7578125,18.3112335 1.7578125,15 C1.7578125,7.69821164 7.69821164,1.7578125 15,1.7578125 C22.3017884,1.7578125 28.2421875,7.69821164 28.2421875,15 C28.2421875,18.3119202 27.0199585,21.343689 25.0030518,23.667984 L25.0030518,23.667984 Z" id="Shape"></path>
            </g>
        </g>
    </g>
</svg>