<?xml version="1.0" encoding="UTF-8"?>
<svg width="24px" height="24px" viewBox="0 0 24 24" version="1.1" xmlns="http://www.w3.org/2000/svg" xmlns:xlink="http://www.w3.org/1999/xlink">
    <title>variable</title>
    <g id="variable" stroke="none" stroke-width="1" fill="none" fill-rule="evenodd">
        <rect id="Rectangle" fill="#FDBD5B" x="0" y="0" width="24" height="24" rx="8"></rect>
        <path d="M14.9557714,8 C13.9141714,8 12.9291429,8.47345143 12.2784,9.28676571 L11.9041143,9.75460571 L11.7770286,9.43682286 C11.4299314,8.56902857 10.5894629,8 9.65482286,8 L9.28571429,8 C8.65453714,8 8.14285714,8.51168 8.14285714,9.14285714 C8.14285714,9.77403429 8.65453714,10.2857143 9.28571429,10.2857143 L9.65482286,10.2857143 L10.2629714,11.8060571 L9.07956571,13.2853714 C8.86268571,13.5564571 8.53432,13.7142857 8.18714286,13.7142857 L8.14285714,13.7142857 C7.51168,13.7142857 7,14.2259429 7,14.8571429 C7,15.4883429 7.51168,16 8.14285714,16 L8.18714286,16 C9.22868571,16 10.21376,15.5265143 10.8644114,14.7132571 L11.2386857,14.2453714 L11.3658057,14.5632 C11.7129143,15.4309714 12.5533714,16 13.488,16 L13.8571429,16 C14.4883429,16 15,15.4883429 15,14.8571429 C15,14.2259429 14.4883429,13.7142857 13.8571429,13.7142857 L13.488,13.7142857 L12.8798857,12.1939429 L14.0633143,10.71464 C14.2802286,10.4435314 14.6085714,10.2857143 14.9557714,10.2857143 L15,10.2857143 C15.6312,10.2857143 16.1428571,9.77403429 16.1428571,9.14285714 C16.1428571,8.51168 15.6312,8 15,8 L14.9557714,8 Z" id="Shape" fill="#FFFFFF"></path>
    </g>
</svg>