<?xml version="1.0" encoding="UTF-8"?>
<svg width="24px" height="24px" viewBox="0 0 24 24" version="1.1" xmlns="http://www.w3.org/2000/svg" xmlns:xlink="http://www.w3.org/1999/xlink">
    <title>submit</title>
    <g id="submit" stroke="none" stroke-width="1" fill="none" fill-rule="evenodd">
        <rect id="Rectangle" fill="#7A9CBC" x="0" y="0" width="24" height="24" rx="8"></rect>
        <g id="hourglass-2" transform="translate(7.000000, 6.000000)" fill="#FFFFFF" fill-rule="nonzero">
            <path d="M9.58333333,1.21875 L9.6875,1.21875 C9.86007813,1.21875 10,1.08232617 10,0.9140625 L10,0.3046875 C10,0.136423828 9.86007813,0 9.6875,0 L0.3125,0 C0.139921875,0 0,0.136423828 0,0.3046875 L0,0.9140625 C0,1.08232617 0.139921875,1.21875 0.3125,1.21875 L0.416666667,1.21875 C0.416666667,3.26432031 1.25489583,5.42869336 2.94739583,6.5 C1.24736979,7.57608008 0.416666667,9.74746094 0.416666667,11.78125 L0.3125,11.78125 C0.139921875,11.78125 0,11.9176738 0,12.0859375 L0,12.6953125 C0,12.8635762 0.139921875,13 0.3125,13 L9.6875,13 C9.86007813,13 10,12.8635762 10,12.6953125 L10,12.0859375 C10,11.9176738 9.86007813,11.78125 9.6875,11.78125 L9.58333333,11.78125 C9.58333333,9.73567969 8.74510417,7.57130664 7.05260417,6.5 C8.75265625,5.42391992 9.58333333,3.25253906 9.58333333,1.21875 Z M1.66666667,1.21875 L8.33333333,1.21875 C8.33333333,3.79894531 6.84096354,5.890625 5,5.890625 C3.15903646,5.890625 1.66666667,3.7989707 1.66666667,1.21875 Z M8.33333333,11.78125 L1.66666667,11.78125 C1.66666667,9.20105469 3.1590625,7.109375 5,7.109375 C6.8409375,7.109375 8.33333333,9.20105469 8.33333333,11.78125 Z" id="Shape"></path>
        </g>
    </g>
</svg>